<?xml version="1.0" encoding="UTF-8" standalone="no"?> <!-- Created with Vectornator Pro for iOS (http://vectornator.io/) --><!DOCTYPE svg PUBLIC "-//W3C//DTD SVG 1.1//EN" "http://www.w3.org/Graphics/SVG/1.1/DTD/svg11.dtd">
<svg height="100%" style="fill-rule:evenodd;clip-rule:evenodd;stroke-linecap:round;stroke-linejoin:round;" xmlns:xlink="http://www.w3.org/1999/xlink" xmlns="http://www.w3.org/2000/svg" xml:space="preserve" width="100%" xmlns:vectornator="http://vectornator.io" version="1.1" viewBox="0 0 1024 1024">
<metadata>
<vectornator:setting key="CMYKEnabledKey" value="0"/>
<vectornator:setting key="Units" value="Points"/>
<vectornator:setting key="GridSpacing" value="5"/>
<vectornator:setting key="RulersVisible" value="1"/>
<vectornator:setting key="DynamicGuides" value="1"/>
</metadata>
<defs>
<radialGradient cx="-14509.3" r="479.634" id="RadialGradient" gradientUnits="userSpaceOnUse" gradientTransform="matrix(0.643419 0.028709 -0.0422191 0.945707 9841.75 8597.04)" cy="-8329.08">
<stop stop-color="#00ffef" offset="0.00961538"/>
<stop stop-color="#2ed674" offset="0.288462"/>
<stop stop-color="#2cde6c" offset="0.361538"/>
<stop stop-color="#1ae940" offset="0.463462"/>
<stop stop-color="#1de250" offset="0.503846"/>
<stop stop-color="#31e72b" offset="0.553846"/>
<stop stop-color="#3be055" offset="0.801923"/>
<stop stop-color="#1ad750" offset="0.909615"/>
<stop stop-color="#1ad34f" offset="0.998077"/>
</radialGradient>
<radialGradient cx="-7529.67" r="791.229" id="RadialGradient_2" gradientUnits="userSpaceOnUse" gradientTransform="matrix(1.03437 0 0 1.03437 8457.87 8453.5)" cy="-7921.61">
<stop stop-color="#e1c2ff" offset="0.0230769"/>
<stop stop-color="#974fbb" offset="0.280769"/>
<stop stop-color="#683bbe" offset="0.423077"/>
<stop stop-color="#4a1f98" offset="0.557692"/>
<stop stop-color="#b2268f" offset="0.734615"/>
<stop stop-color="#7000ff" offset="1"/>
<stop stop-color="#140421" offset="1"/>
<stop stop-color="#2b0952" offset="1"/>
</radialGradient>
<linearGradient y1="731.188" id="LinearGradient" x1="575.669" y2="104.96" x2="384.231" gradientUnits="userSpaceOnUse" gradientTransform="matrix(0.844382 0 0 0.844382 79.9443 94.8753)">
<stop stop-opacity="0.4" stop-color="#1a0523" offset="0.00384615"/>
<stop stop-opacity="0.173" stop-color="#630481" offset="0.496154"/>
<stop stop-opacity="0" stop-color="#6a38a6" offset="0.996154"/>
</linearGradient>
<radialGradient cx="-8260.94" r="266.886" id="RadialGradient_3" gradientUnits="userSpaceOnUse" gradientTransform="matrix(1.0293 0.103859 -0.103859 1.0293 8773.92 8198.6)" cy="-6516.56">
<stop stop-color="#00ff26" offset="0.0230769"/>
<stop stop-color="#68ff27" offset="0.275"/>
<stop stop-color="#7924c4" offset="0.748077"/>
</radialGradient>
<radialGradient cx="-8285.09" r="445.678" id="RadialGradient_4" gradientUnits="userSpaceOnUse" gradientTransform="matrix(1.0293 0.103859 -0.103859 1.0293 8773.92 8198.6)" cy="-6772.47">
<stop stop-color="#16bb1f" offset="0"/>
<stop stop-color="#00ff4d" offset="0.0903846"/>
<stop stop-color="#00ffa2" offset="0.248077"/>
<stop stop-color="#9100ff" offset="0.442308"/>
<stop stop-color="#7858ae" offset="0.525"/>
</radialGradient>
<radialGradient cx="-8222.05" r="408.958" id="RadialGradient_5" gradientUnits="userSpaceOnUse" gradientTransform="matrix(1.0293 0.103859 -0.103859 1.0293 8773.92 8198.6)" cy="-6359.33">
<stop stop-color="#25d03e" offset="0.0269231"/>
<stop stop-color="#24c44e" offset="0.376923"/>
<stop stop-color="#610a98" offset="1"/>
</radialGradient>
<radialGradient cx="778.167" r="754.329" id="RadialGradient_6" gradientUnits="userSpaceOnUse" gradientTransform="matrix(0.844382 0 0 0.844382 79.9443 94.8753)" cy="382.212">
<stop stop-color="#00feff" offset="0.00961538"/>
<stop stop-color="#2fe9c5" offset="0.240385"/>
<stop stop-color="#3bcdad" offset="0.317308"/>
<stop stop-color="#3ed65a" offset="0.388462"/>
<stop stop-color="#28e358" offset="0.5"/>
<stop stop-color="#3ee738" offset="0.607692"/>
<stop stop-color="#48d743" offset="0.736538"/>
<stop stop-color="#39c948" offset="0.809615"/>
<stop stop-color="#68b044" offset="0.988462"/>
</radialGradient>
<radialGradient cx="691.339" r="923.615" id="RadialGradient_7" gradientUnits="userSpaceOnUse" gradientTransform="matrix(0.844382 0 0 0.844382 79.9443 94.8753)" cy="3.289">
<stop stop-color="#00ffa5" offset="0.269231"/>
<stop stop-color="#00ffa2" offset="0.405769"/>
<stop stop-color="#00ff1a" offset="0.640385"/>
<stop stop-color="#00ff42" offset="0.838462"/>
<stop stop-color="#1cc416" offset="0.917308"/>
<stop stop-color="#16bb1f" offset="0.992308"/>
</radialGradient>
<radialGradient cx="-8944.65" r="293.454" id="RadialGradient_8" gradientUnits="userSpaceOnUse" gradientTransform="matrix(1.0293 0.103859 -0.103859 1.0293 8773.92 8198.6)" cy="-6677.74">
<stop stop-color="#16bb1f" offset="0.263462"/>
<stop stop-color="#00ffa2" offset="0.369231"/>
<stop stop-color="#00ff42" offset="0.838462"/>
<stop stop-color="#00ff1a" offset="0.842308"/>
<stop stop-color="#1cc416" offset="0.917308"/>
<stop stop-color="#00ffa5" offset="1"/>
</radialGradient>
<radialGradient cx="245.347" r="150.118" id="RadialGradient_9" gradientUnits="userSpaceOnUse" gradientTransform="matrix(0.84016 0.0844382 -0.0844382 0.84016 -66.7214 1204.34)" cy="-1082.01">
<stop stop-opacity="0.5" stop-color="#029b34" offset="0.275"/>
<stop stop-opacity="0.5" stop-color="#20b155" offset="0.434615"/>
<stop stop-opacity="0.5" stop-color="#3dcd4c" offset="0.65"/>
<stop stop-opacity="0.5" stop-color="#2fd259" offset="0.826923"/>
<stop stop-opacity="0.5" stop-color="#31d698" offset="0.894231"/>
<stop stop-opacity="0.5" stop-color="#2eeedf" offset="0.973077"/>
</radialGradient>
<linearGradient y1="718.827" id="LinearGradient_2" x1="22.04" y2="825.714" x2="116.148" gradientUnits="userSpaceOnUse" gradientTransform="matrix(0.84016 0.0844382 -0.0844382 0.84016 337.851 -113.24)">
<stop stop-opacity="0.8" stop-color="#208a1a" offset="0"/>
<stop stop-opacity="0.8" stop-color="#21c72b" offset="0.530769"/>
<stop stop-opacity="0" stop-color="#25d03e" offset="0.980769"/>
</linearGradient>
<linearGradient y1="904.616" id="LinearGradient_3" x1="200.104" y2="829.835" x2="200.171" gradientUnits="userSpaceOnUse" gradientTransform="matrix(0.84016 0.0844382 -0.0844382 0.84016 337.851 -113.24)">
<stop stop-opacity="0.813017" stop-color="#2fa44f" offset="0.0519231"/>
<stop stop-opacity="0.536805" stop-color="#0eaa19" offset="0.278846"/>
<stop stop-opacity="0.00635593" stop-color="#25d03e" offset="0.726923"/>
</linearGradient>
<radialGradient cx="655.531" r="748.726" id="RadialGradient_10" gradientUnits="userSpaceOnUse" gradientTransform="matrix(0.844382 0 0 0.844382 79.9443 94.8753)" cy="38.12">
<stop stop-color="#00ffcc" offset="0.00961538"/>
<stop stop-color="#2ed674" offset="0.315385"/>
<stop stop-color="#3bcd70" offset="0.386538"/>
<stop stop-color="#40ce5a" offset="0.444231"/>
<stop stop-color="#1ac246" offset="0.575"/>
<stop stop-color="#2ac040" offset="0.690385"/>
<stop stop-color="#3cbf37" offset="0.790385"/>
<stop stop-color="#1ad750" offset="0.892308"/>
<stop stop-color="#00ff4f" offset="0.992308"/>
</radialGradient>
<radialGradient cx="715.885" r="414.837" id="RadialGradient_11" gradientUnits="userSpaceOnUse" gradientTransform="matrix(0.844382 0 0 0.844382 79.9443 94.8753)" cy="431.21">
<stop stop-color="#00ffef" offset="0.00961538"/>
<stop stop-color="#2ed674" offset="0.288462"/>
<stop stop-color="#2cde6c" offset="0.361538"/>
<stop stop-color="#1ae940" offset="0.463462"/>
<stop stop-color="#1de250" offset="0.503846"/>
<stop stop-color="#31e72b" offset="0.553846"/>
<stop stop-color="#3be055" offset="0.801923"/>
<stop stop-color="#1ad750" offset="0.909615"/>
<stop stop-color="#1ad34f" offset="0.998077"/>
</radialGradient>
</defs>
<g id="g4246" vectornator:layerName="g4246">
<g opacity="1">
<path d="M759.912+173.874C739.692+197.419+730.274+250.408+750.778+304.125C771.281+357.842+802.707+346.175+822.297+400.953C848.154+473.232+836.118+570.326+836.118+570.326C836.118+570.326+867.204+660.345+888.865+564.726C936.812+385.123+759.912+218.102+759.912+173.874Z" opacity="1" fill="url(#RadialGradient)"/>
<path d="M513.173+919.531C720.246+919.531+887.994+750.875+887.994+542.913C887.994+334.951+720.246+166.296+513.374+166.296C306.502+166.296+138.755+334.952+138.755+542.913C138.354+751.076+306.3+919.531+513.173+919.531Z" opacity="1" fill="url(#RadialGradient_2)"/>
<path d="M794.017+775.14C785.914+780.856+777.414+785.987+768.581+790.493C780.282+773.349+791.077+755.603+800.921+737.33C808.909+728.489+816.227+719.895+822.19+710.603C825.092+706.037+828.365+700.403+831.829+693.868C852.872+655.955+876.075+594.6+876.732+531.578L876.732+531.426C876.748+529.875+876.757+528.323+876.744+526.769C876.853+510.949+875.236+495.165+871.921+479.696C872.09+480.905+872.239+482.112+872.391+483.32C872.204+482.391+872.047+481.452+871.847+480.521C872.156+482.239+872.404+483.899+872.671+485.573C876.972+522.065+873.909+557.66+858.585+583.902C858.343+584.285+858.095+584.644+857.851+585.019C865.797+545.135+868.455+501.098+859.614+457.01C859.614+457.01+856.079+435.577+829.743+370.511C814.585+333.06+787.665+302.356+763.882+279.987C743.034+254.195+724.099+236.886+713.662+225.896C691.859+202.938+682.721+185.73+678.969+174.501C675.716+172.87+634.103+132.445+630.797+130.905C612.633+159.067+555.51+247.155+582.683+329.458C594.998+366.756+626.141+405.467+658.734+427.183C660.165+428.818+678.129+448.328+686.671+492.333C695.492+537.797+690.854+573.272+672.7+625.731C651.349+671.754+596.649+717.252+545.432+721.906C435.936+731.854+395.85+666.93+395.85+666.93C434.976+682.573+478.235+679.301+504.542+663.083C531.056+646.681+547.094+634.521+560.111+639.316C572.946+644.089+583.163+630.234+573.995+615.87C559.521+593.577+533.13+582.086+506.951+586.677C480.409+590.991+456.097+612.016+421.32+591.654C419.069+590.348+416.891+588.921+414.794+587.38C412.501+585.872+422.246+589.674+419.973+587.96C413.205+584.284+401.227+576.273+398.12+573.423C397.602+572.948+403.371+575.263+402.854+574.787C370.336+548.01+374.398+529.922+375.42+518.577C376.238+509.501+382.144+497.87+392.097+493.152C396.904+495.776+399.899+497.779+399.899+497.779C399.899+497.779+397.849+493.59+396.74+491.382C397.129+491.213+397.5+491.258+397.887+491.093C401.825+492.994+410.533+497.932+415.118+500.944C421.09+505.156+422.993+508.912+422.993+508.912C422.993+508.912+424.565+508.046+423.402+504.373C422.98+502.867+421.167+498.08+415.252+493.25L415.622+493.291C419.163+495.308+422.516+497.637+425.643+500.249C427.31+494.186+430.309+487.855+429.65+476.529C429.247+468.566+429.433+466.504+428.03+463.429C426.773+460.787+428.734+459.757+430.916+462.5C430.542+460.351+429.916+458.253+429.051+456.251L429.07+456.045C431.793+446.558+486.697+421.881+490.694+418.996C497.26+414.35+502.766+408.364+506.848+401.433C509.903+396.567+512.199+389.74+512.759+379.385C513.059+371.917+509.585+366.944+454.069+361.131C438.886+359.635+429.978+348.634+424.916+338.482C423.992+336.295+423.05+334.313+422.108+332.333C421.209+330.018+420.486+327.639+419.948+325.214C429.024+299.146+444.275+277.104+466.699+260.45C467.921+259.337+461.817+260.736+463.038+259.623C464.462+258.324+473.766+254.576+475.524+253.731C477.67+252.718+466.335+247.905+456.329+249.077C446.138+250.226+443.974+251.441+438.535+253.747C440.792+251.501+447.97+248.555+446.287+248.575C435.301+250.259+421.649+256.645+409.978+263.878C409.956+262.619+410.196+261.368+410.683+260.207C405.245+262.514+391.888+271.849+387.999+279.748C388.167+278.234+388.242+276.711+388.224+275.188C384.081+278.643+380.343+282.558+377.082+286.856L376.879+287.041C345.334+274.333+317.575+273.51+294.085+279.208C288.946+274.047+286.435+277.82+274.742+252.13C273.948+250.583+275.352+253.657+274.742+252.13C272.819+247.148+275.915+258.777+274.742+252.13C255.082+267.643+229.213+285.223+216.796+297.633C216.642+298.128+231.282+293.496+216.796+297.633C211.723+299.082+212.067+302.093+211.296+329.298C211.111+331.36+211.275+333.671+211.108+335.528C201.188+348.166+194.432+358.869+191.877+364.415C179.048+386.521+164.919+420.981+151.224+475.494C157.265+460.718+164.548+446.481+172.995+432.936C161.606+461.871+150.596+507.308+148.395+577.279C151.15+562.84+154.683+548.561+158.978+534.503C156.289+592.553+166.3+650.492+188.311+704.275C196.189+723.544+209.218+752.789+231.399+784.829C301.089+858.154+399.385+903.802+508.232+903.802C621.862+903.803+723.899+854.087+794.017+775.14L794.017+775.14Z" opacity="1" fill="url(#LinearGradient)"/>
<path d="M709.937+828.396C847.462+812.471+908.341+670.75+830.161+667.964C759.543+665.707+644.797+835.911+709.937+828.396Z" opacity="1" fill="url(#RadialGradient_3)"/>
<path d="M840.063+639.015C934.681+583.95+910.01+465.005+910.01+465.005C910.01+465.005+873.494+507.425+848.687+575.045C824.182+642.003+783.177+672.274+840.063+639.015Z" opacity="1" fill="url(#RadialGradient_4)"/>
<path d="M539.688+898.779C671.603+940.872+784.981+836.953+715.094+802.249C651.554+770.952+477.077+878.875+539.688+898.779Z" opacity="1" fill="url(#RadialGradient_5)"/>
<path d="M849.893+689.518C853.102+684.989+857.442+670.49+861.275+664.008C884.565+626.414+884.73+596.438+884.73+595.752C898.796+525.483+897.52+496.79+888.867+443.727C881.9+401.001+851.442+339.79+825.057+310.314C797.868+279.946+817.024+289.841+790.698+267.658C767.623+242.079+745.25+216.749+733.066+206.563C645.017+132.952+647.007+117.316+648.702+114.651C648.416+114.964+647.995+115.429+647.459+116.038C646.416+111.881+645.68+108.385+645.68+108.385C645.68+108.385+597.55+156.515+587.418+236.731C580.803+289.101+600.407+343.694+628.792+378.588C643.573+396.671+660.278+413.092+678.611+427.562L678.611+427.54C700.058+458.34+711.863+496.348+711.863+537.233C711.863+639.609+628.825+722.601+526.393+722.601C512.432+722.608+498.515+721.045+484.905+717.94C436.576+708.73+408.667+684.35+394.748+667.799C386.771+658.314+383.38+651.399+383.38+651.399C426.682+666.911+474.561+663.666+503.677+647.584C533.018+631.317+550.772+619.258+565.179+624.013C579.382+628.747+590.689+615.006+580.547+600.762C570.608+586.539+544.745+566.168+506.344+571.812C476.969+576.09+450.06+596.94+411.571+576.747C409.092+575.459+406.681+574.044+404.348+572.508C401.811+571.013+412.596+574.784+410.079+573.084C402.589+569.438+389.33+561.493+385.893+558.667C385.32+558.197+391.705+560.492+391.129+560.018C355.14+533.463+359.633+515.525+360.765+504.274C361.671+495.273+368.208+483.738+379.223+479.061C384.542+481.662+387.857+483.648+387.857+483.648C387.857+483.648+385.588+479.494+384.361+477.304C384.791+477.14+385.2+477.182+385.627+477.018C389.986+478.903+399.624+483.798+404.699+486.787C411.308+490.965+413.414+494.689+413.414+494.689C413.414+494.689+415.155+493.831+413.867+490.189C413.397+488.695+411.394+483.948+404.847+479.157L405.257+479.198C409.143+481.179+412.853+483.488+416.347+486.099C418.193+480.086+421.513+473.808+420.782+462.576C420.337+454.679+420.543+452.633+418.989+449.584C417.598+446.966+419.769+445.943+422.182+448.665C421.765+446.518+421.071+444.434+420.119+442.465L420.14+442.261C423.154+432.852+483.92+408.38+488.343+405.519C495.47+401.045+501.565+395.108+506.223+388.1C509.6+383.274+512.145+376.504+512.765+366.234C512.973+361.607+511.548+357.945+495.455+354.442C485.796+352.34+470.853+350.294+447.804+348.132C431.001+346.649+421.141+335.739+415.539+325.671C414.516+323.502+413.474+321.534+412.431+319.573C411.44+317.29+410.641+314.929+410.041+312.514C420.096+286.191+438.204+263.714+461.784+248.288C463.135+247.183+456.38+248.571+457.731+247.467C459.308+246.179+469.605+242.462+471.551+241.625C473.926+240.623+461.381+235.849+450.307+237.009C439.029+238.148+436.633+239.353+430.613+241.642C433.112+239.413+441.055+236.491+439.193+236.512C427.034+238.182+411.92+244.516+399.001+251.688C398.977+250.43+399.244+249.184+399.781+248.047C393.761+250.334+378.978+259.593+374.674+267.426C374.859+265.926+374.942+264.416+374.922+262.905C370.389+266.283+366.254+270.164+362.594+274.473L362.369+274.657C327.456+262.054+296.733+261.239+270.735+266.889C265.047+261.771+255.902+254.032+242.961+228.554C242.082+227.019+241.61+231.724+240.935+230.209C235.907+218.546+232.869+199.437+233.368+186.263C233.368+186.263+222.967+191.003+214.358+210.8C212.76+214.36+211.735+216.323+210.71+218.286C210.239+218.858+211.778+211.784+211.533+212.169C210.037+214.702+206.166+218.242+204.464+222.824C203.296+226.219+201.657+228.12+200.611+232.355L200.365+232.743C200.281+231.495+200.675+227.609+200.388+228.406C196.353+236.558+192.88+244.977+189.995+253.603C185.36+268.841+179.965+289.582+179.109+316.564C178.903+318.61+179.087+320.901+178.901+322.743C167.924+335.277+160.444+345.89+157.616+351.391C143.425+373.32+127.787+407.496+112.628+461.556C119.372+446.789+127.437+432.661+136.725+419.346C124.119+448.041+111.934+493.101+109.498+562.494C112.558+548.134+116.469+533.968+121.211+520.072C119.034+566.344+124.424+623.712+153.677+688.436C171.046+726.507+211.028+803.82+308.722+864.152L308.714+864.158C308.714+864.158+341.948+888.898+399.077+907.44C403.299+908.972+407.575+910.48+411.94+911.943C410.57+911.39+409.246+910.808+407.959+910.21C445.984+921.603+485.464+927.406+525.159+927.436C673.078+927.561+716.703+868.16+716.703+868.16C716.703+868.16+716.55+868.276+716.27+868.478C718.358+866.513+720.368+864.471+722.302+862.351C698.964+884.389+645.704+885.852+625.789+884.262C659.752+874.287+682.102+865.849+725.574+849.204C730.661+847.318+735.863+845.168+741.18+842.753C741.755+842.499+742.335+842.225+742.912+841.962C743.967+841.471+745.011+841.006+746.076+840.49C767.257+830.509+787.173+818.04+805.404+803.348C849.059+768.475+858.557+734.483+863.522+712.07C862.83+714.218+860.672+719.226+859.157+722.47C847.914+746.519+822.982+761.277+795.906+773.933C808.79+757.027+820.739+739.428+831.697+721.215C840.535+712.448+843.293+698.733+849.893+689.518Z" opacity="1" fill="url(#RadialGradient_6)"/>
<path d="M796.758+772.899C814.557+753.274+830.541+730.828+842.649+705.375C873.807+639.866+921.98+530.943+884.039+417.183C854.052+327.27+812.881+278.106+760.606+230.079C675.709+152.087+651.998+117.269+651.998+96.5641C651.998+96.5641+553.974+205.835+596.486+319.803C638.998+433.77+726.065+429.592+783.668+548.524C851.451+688.476+728.826+841.198+627.42+883.944C633.629+882.565+852.845+832.958+864.366+707.568C864.105+709.874+859.165+744.554+796.758+772.899Z" opacity="1" fill="url(#RadialGradient_7)"/>
<path d="M512.768+366.237C513.099+358.832+509.258+353.858+448.019+348.114C422.823+345.788+413.175+322.5+410.234+312.7C401.275+335.975+397.576+360.399+399.565+389.941C400.924+409.294+413.927+430.067+420.142+442.263C420.142+442.263+421.524+440.468+422.161+439.804C433.865+427.619+482.903+409.053+487.51+406.417C492.588+403.209+511.915+389.087+512.768+366.237Z" opacity="1" fill="url(#RadialGradient_8)"/>
<path d="M243.175+228.685C242.296+227.15+241.824+231.855+241.149+230.341C236.12+218.678+233.061+199.775+233.786+186.415C233.786+186.415+223.384+191.155+214.776+210.952C213.178+214.512+212.153+216.475+211.128+218.438C210.657+219.01+212.196+211.936+211.951+212.321C210.455+214.854+206.585+218.394+204.904+222.77C203.509+226.35+202.076+228.272+201.008+232.711C200.68+233.917+201.339+227.371+201.052+228.169C181.031+266.862+177.209+325.369+179.32+322.895C221.942+277.383+270.787+266.589+270.787+266.589C265.59+262.76+254.298+251.707+243.176+228.685L243.175+228.685Z" opacity="1" fill="url(#RadialGradient_9)"/>
<path d="M404.9+704.603C346.026+679.467+279.093+644.015+281.62+563.475C285.061+457.405+380.535+478.369+380.535+478.369C376.932+479.246+367.299+486.105+363.885+493.416C360.277+502.558+353.695+523.202+373.639+544.839C404.956+578.776+309.297+625.356+456.948+713.349C460.672+715.376+422.336+712.142+404.901+704.603L404.9+704.603Z" opacity="1" fill="url(#LinearGradient_2)"/>
<path d="M383.984+651.745C425.732+666.274+474.367+663.726+503.484+647.643C522.976+636.792+547.983+619.412+563.369+623.702C550.047+618.437+539.958+615.976+527.82+615.375C525.753+615.375+523.276+615.331+521.025+615.105C516.579+615.09+512.137+615.334+507.72+615.833C500.205+616.524+491.874+621.265+484.301+620.505C483.891+620.463+491.647+617.318+491.016+617.461C487.004+618.297+482.644+618.478+478.038+619.049C475.111+619.375+472.593+619.741+469.686+619.862C382.73+627.236+309.24+572.735+309.24+572.735C302.984+593.802+337.244+635.472+383.985+651.745L383.984+651.745Z" opacity="1" fill="url(#LinearGradient_3)"/>
<path d="M796.603+773.459C884.556+687.104+929.055+582.135+910.243+464.4C910.243+464.4+917.758+524.773+889.261+586.521C902.951+526.238+904.545+451.323+868.173+373.747C819.627+270.199+739.786+215.714+709.305+192.983C663.122+158.542+643.977+123.475+643.632+116.238C629.835+144.506+588.1+241.376+639.148+324.8C686.974+402.96+762.314+426.159+815.056+497.854C912.223+629.932+796.603+773.459+796.603+773.459Z" opacity="1" fill="url(#RadialGradient_10)"/>
<path d="M784.002+548.774C753.264+485.275+714.901+457.579+678.611+427.562C682.833+433.472+683.873+435.561+686.21+439.383C718.151+473.425+765.25+556.462+731.055+660.701C666.689+856.915+409.225+764.518+382.233+738.564C393.152+852.124+583.226+906.465+706.982+832.822C777.404+766.159+834.372+652.833+784.002+548.774Z" opacity="1" fill="url(#RadialGradient_11)"/>
</g>
</g>
</svg>
